<svg xmlns="http://www.w3.org/2000/svg" width="340" height="200" viewBox="0 0 340 200">
<style>* { font-family: 'Segoe UI', Ubuntu, "Helvetica Neue", Sans-Serif }</style>
<rect x="1" y="1" rx="5" ry="5" width="338" height="198" fill="#ffffff" stroke="#e4e2e2"/>
<text x="30" y="36" font-size="20" fill="#0366d6">Commits per hour</text>
<text x="30" y="52" font-size="11" fill="#586069">922 commits · last 12 months · Europe/Paris</text>
<rect x="36.0" y="110.6" width="9.7" height="49.4" rx="1" fill="#40c463"><title>00h: 39 commits</title></rect><rect x="47.7" y="82.8" width="9.7" height="77.2" rx="1" fill="#40c463"><title>01h: 61 commits</title></rect><rect x="59.3" y="77.7" width="9.7" height="82.3" rx="1" fill="#40c463"><title>02h: 65 commits</title></rect><rect x="71.0" y="109.4" width="9.7" height="50.6" rx="1" fill="#40c463"><title>03h: 40 commits</title></rect><rect x="82.7" y="134.7" width="9.7" height="25.3" rx="1" fill="#40c463"><title>04h: 20 commits</title></rect><rect x="94.3" y="144.8" width="9.7" height="15.2" rx="1" fill="#40c463"><title>05h: 12 commits</title></rect><rect x="106.0" y="142.3" width="9.7" height="17.7" rx="1" fill="#40c463"><title>06h: 14 commits</title></rect><rect x="117.7" y="156.2" width="9.7" height="3.8" rx="1" fill="#40c463"><title>07h: 3 commits</title></rect><rect x="129.3" y="146.1" width="9.7" height="13.9" rx="1" fill="#40c463"><title>08h: 11 commits</title></rect><rect x="141.0" y="124.6" width="9.7" height="35.4" rx="1" fill="#40c463"><title>09h: 28 commits</title></rect><rect x="152.7" y="122.0" width="9.7" height="38.0" rx="1" fill="#40c463"><title>10h: 30 commits</title></rect><rect x="164.3" y="138.5" width="9.7" height="21.5" rx="1" fill="#40c463"><title>11h: 17 commits</title></rect><rect x="176.0" y="119.5" width="9.7" height="40.5" rx="1" fill="#40c463"><title>12h: 32 commits</title></rect><rect x="187.7" y="132.2" width="9.7" height="27.8" rx="1" fill="#40c463"><title>13h: 22 commits</title></rect><rect x="199.3" y="114.4" width="9.7" height="45.6" rx="1" fill="#40c463"><title>14h: 36 commits</title></rect><rect x="211.0" y="87.8" width="9.7" height="72.2" rx="1" fill="#40c463"><title>15h: 57 commits</title></rect><rect x="222.7" y="75.2" width="9.7" height="84.8" rx="1" fill="#40c463"><title>16h: 67 commits</title></rect><rect x="234.3" y="119.5" width="9.7" height="40.5" rx="1" fill="#40c463"><title>17h: 32 commits</title></rect><rect x="246.0" y="99.2" width="9.7" height="60.8" rx="1" fill="#40c463"><title>18h: 48 commits</title></rect><rect x="257.7" y="60.0" width="9.7" height="100.0" rx="1" fill="#40c463"><title>19h: 79 commits</title></rect><rect x="269.3" y="101.8" width="9.7" height="58.2" rx="1" fill="#40c463"><title>20h: 46 commits</title></rect><rect x="281.0" y="99.2" width="9.7" height="60.8" rx="1" fill="#40c463"><title>21h: 48 commits</title></rect><rect x="292.7" y="100.5" width="9.7" height="59.5" rx="1" fill="#40c463"><title>22h: 47 commits</title></rect><rect x="304.3" y="73.9" width="9.7" height="86.1" rx="1" fill="#40c463"><title>23h: 68 commits</title></rect>
<line x1="35" y1="160.5" x2="315" y2="160.5" stroke="#586069"/>
<g font-size="10" fill="#586069"><text x="40.8" y="176" text-anchor="middle">0h</text><text x="110.8" y="176" text-anchor="middle">6h</text><text x="180.8" y="176" text-anchor="middle">12h</text><text x="250.8" y="176" text-anchor="middle">18h</text><text x="309.2" y="176" text-anchor="middle">23h</text></g>
</svg>
